<svg width="240" height="140" viewBox="0 0 240 140" fill="none" xmlns="http://www.w3.org/2000/svg">
  <rect x="0" y="0" width="240" height="140" rx="20" fill="#10283F" />
  <path d="M28 90C28 88.3431 29.3431 87 31 87H41C42.6569 87 44 88.3431 44 90V98H196V90C196 88.3431 197.343 87 199 87H209C210.657 87 212 88.3431 212 90V98H220C222.209 98 224 99.7914 224 102V108C224 111.314 221.314 114 218 114H214C210.686 114 208 111.314 208 108V104H32V108C32 111.314 29.3137 114 26 114H22C18.6863 114 16 111.314 16 108V102C16 99.7914 17.7914 98 20 98H28V90Z" fill="#1F9D61" />
  <path d="M72 72C72 59.8497 82.8497 49 95 49H145C157.15 49 168 59.8497 168 72V84H72V72Z" fill="#FFFFFF" fill-opacity="0.98" />
  <path d="M62 84H178L190 104H50L62 84Z" fill="#E2E8F0" />
  <circle cx="60" cy="104" r="18" fill="#0F172A" />
  <circle cx="180" cy="104" r="18" fill="#0F172A" />
  <circle cx="60" cy="104" r="8" fill="#CDD6E0" />
  <circle cx="180" cy="104" r="8" fill="#CDD6E0" />
  <path d="M82 57H158C158 57 154 45 120 45C86 45 82 57 82 57Z" fill="#0F172A" />
  <path d="M62 76H178V84H62V76Z" fill="#0F172A" />
</svg>
